<?xml version="1.0" encoding="UTF-8" standalone="no"?>
<!-- Created with Inkscape (http://www.inkscape.org/) -->

<svg xmlns:dc="http://purl.org/dc/elements/1.1/" xmlns:cc="http://creativecommons.org/ns#" xmlns:rdf="http://www.w3.org/1999/02/22-rdf-syntax-ns#" xmlns:svg="http://www.w3.org/2000/svg" xmlns="http://www.w3.org/2000/svg" xmlns:sodipodi="http://sodipodi.sourceforge.net/DTD/sodipodi-0.dtd" xmlns:inkscape="http://www.inkscape.org/namespaces/inkscape" id="svg3846" sodipodi:docname="foot.svg" viewBox="0 0 247.87 205.47" version="1.1" inkscape:version="0.48.5 r10040" width="100%" height="100%">
  <defs id="defs3035" />
  <sodipodi:namedview id="namedview3848" fit-margin-left="0" inkscape:zoom="2" borderopacity="1" inkscape:current-layer="svg3846" inkscape:cx="170.45926" inkscape:cy="91.030397" inkscape:window-maximized="0" showgrid="false" fit-margin-right="0" bordercolor="#666666" inkscape:window-x="1920" guidetolerance="10" objecttolerance="10" inkscape:window-y="0" fit-margin-bottom="0" inkscape:window-width="1918" inkscape:pageopacity="0" inkscape:pageshadow="2" pagecolor="#ffffff" gridtolerance="10" inkscape:window-height="1055" fit-margin-top="0" />
  <g style="font-size:18.47405243px;font-style:normal;font-variant:normal;font-weight:normal;font-stretch:normal;text-align:start;line-height:125%;letter-spacing:0px;word-spacing:0px;text-anchor:start;fill:#000000;fill-opacity:1;stroke:none;font-family:Code Bold;-inkscape-font-specification:Code Bold" id="text" transform="translate(2.4999991,3.5000001)">
    <path d="m 164.4587,181.55544 c 1.38205,2e-5 2.39672,0.38052 3.04402,1.14151 0.56856,0.6648 0.85285,1.592 0.85285,2.7816 l 0,2.38798 c 0,1.16339 -0.44174,2.14745 -1.32519,2.95218 l 1.8369,7.17706 -2.67663,0 -1.50889,-6.20612 c -0.07,0.009 -0.14434,0.0131 -0.22306,0.0131 l -1.43016,0 0,6.193 -2.47983,0 0,-16.44033 3.90999,0 m 1.48265,3.96248 c -1e-5,-0.95343 -0.47235,-1.43016 -1.41704,-1.43017 l -1.49577,0 0,5.26143 1.49577,0 c 0.39362,10e-6 0.72601,-0.13994 0.99718,-0.41986 0.2799,-0.2799 0.41985,-0.61667 0.41986,-1.0103 l 0,-2.4011" style="font-weight:bold;fill:#000000;stroke:none;font-family:Bebas;-inkscape-font-specification:Bebas Bold" id="path3867" inkscape:connector-curvature="0" />
    <path d="m 173.49236,197.99577 -2.47983,0 0,-16.44033 2.47983,0 0,16.44033" style="font-weight:bold;fill:#000000;stroke:none;font-family:Bebas;-inkscape-font-specification:Bebas Bold" id="path3869" inkscape:connector-curvature="0" />
    <path d="m 179.6214,198.20571 c -1.0934,0 -2.02498,-0.38488 -2.79472,-1.15463 -0.76101,-0.76975 -1.14151,-1.69258 -1.14151,-2.76849 l 0,-8.97461 c 0,-1.09338 0.38487,-2.02058 1.15463,-2.7816 0.76975,-0.76974 1.69695,-1.15461 2.7816,-1.15463 1.09339,2e-5 2.02059,0.38489 2.78161,1.15463 0.76099,0.76977 1.14149,1.69697 1.1415,2.7816 l 0,1.87627 -2.57167,0 0,-1.92875 c -1e-5,-0.39361 -0.13996,-0.73038 -0.41986,-1.0103 -0.27992,-0.2799 -0.61669,-0.41985 -1.0103,-0.41986 -0.39363,10e-6 -0.7304,0.13996 -1.0103,0.41986 -0.27117,0.27992 -0.40675,0.61669 -0.40675,1.0103 l 0,9.00085 c 0,0.39363 0.13558,0.7304 0.40675,1.0103 0.2799,0.27117 0.61667,0.40675 1.0103,0.40675 0.39361,0 0.73038,-0.13558 1.0103,-0.40675 0.2799,-0.2799 0.41985,-0.61667 0.41986,-1.0103 l 0,-3.24083 -1.37768,0 0,-2.47983 3.94935,0 0,5.7469 c -1e-5,1.0934 -0.38488,2.0206 -1.15463,2.78161 -0.76975,0.761 -1.69258,1.14151 -2.76848,1.14151" style="font-weight:bold;fill:#000000;stroke:none;font-family:Bebas;-inkscape-font-specification:Bebas Bold" id="path3871" inkscape:connector-curvature="0" />
    <path d="m 188.19091,191.02864 0,6.96713 -2.49295,0 0,-16.44033 2.49295,0 0,6.98025 2.96529,0 0,-6.98025 2.49295,0 0,16.44033 -2.49295,0 0,-6.96713 -2.96529,0" style="font-weight:bold;fill:#000000;stroke:none;font-family:Bebas;-inkscape-font-specification:Bebas Bold" id="path3873" inkscape:connector-curvature="0" />
    <path d="m 198.29391,184.03527 -2.63728,0 0,-2.47983 7.74126,0 0,2.47983 -2.62416,0 0,13.9605 -2.47982,0 0,-13.9605" style="font-weight:bold;fill:#000000;stroke:none;font-family:Bebas;-inkscape-font-specification:Bebas Bold" id="path3875" inkscape:connector-curvature="0" />
    <path d="m 207.87863,197.99577 -2.47982,0 0,-16.45345 7.05897,0 0,2.47983 -4.57915,0 0,4.50042 3.3458,0 0,2.49295 -3.3458,0 0,6.98025" style="font-weight:bold;fill:#000000;stroke:none;font-family:Bebas;-inkscape-font-specification:Bebas Bold" id="path3877" inkscape:connector-curvature="0" />
    <path d="m 218.08987,181.34551 c 1.0934,2e-5 2.0206,0.38489 2.78161,1.15463 0.76974,0.76976 1.15462,1.69696 1.15463,2.7816 l 0,8.97461 c -10e-6,1.0934 -0.38489,2.02498 -1.15463,2.79473 -0.76976,0.761 -1.69696,1.1415 -2.78161,1.1415 -1.0934,0 -2.0206,-0.38487 -2.7816,-1.15462 -0.76101,-0.76975 -1.14151,-1.69695 -1.14151,-2.78161 l 0,-8.97461 c 0,-1.09338 0.38488,-2.02058 1.15463,-2.7816 0.76975,-0.76974 1.69258,-1.15461 2.76848,-1.15463 m 1.35144,3.88375 c 0,-0.39361 -0.13996,-0.726 -0.41986,-0.99718 -0.27117,-0.2799 -0.60356,-0.41985 -0.99718,-0.41987 -0.39363,2e-5 -0.73039,0.13997 -1.0103,0.41987 -0.27991,0.27118 -0.41987,0.60357 -0.41986,0.99718 l 0,9.00085 c -1e-5,0.39363 0.13995,0.73039 0.41986,1.0103 0.27991,0.27117 0.61667,0.40675 1.0103,0.40674 0.39362,1e-5 0.72601,-0.13557 0.99718,-0.40674 0.2799,-0.27991 0.41986,-0.61667 0.41986,-1.0103 l 0,-9.00085" style="font-weight:bold;fill:#000000;stroke:none;font-family:Bebas;-inkscape-font-specification:Bebas Bold" id="path3879" inkscape:connector-curvature="0" />
    <path d="m 228.08462,181.34551 c 1.0934,2e-5 2.0206,0.38489 2.78161,1.15463 0.76974,0.76976 1.15462,1.69696 1.15463,2.7816 l 0,8.97461 c -1e-5,1.0934 -0.38489,2.02498 -1.15463,2.79473 -0.76976,0.761 -1.69696,1.1415 -2.78161,1.1415 -1.0934,0 -2.0206,-0.38487 -2.7816,-1.15462 -0.76101,-0.76975 -1.14151,-1.69695 -1.14151,-2.78161 l 0,-8.97461 c 0,-1.09338 0.38488,-2.02058 1.15463,-2.7816 0.76975,-0.76974 1.69258,-1.15461 2.76848,-1.15463 m 1.35144,3.88375 c 0,-0.39361 -0.13996,-0.726 -0.41986,-0.99718 -0.27117,-0.2799 -0.60356,-0.41985 -0.99718,-0.41987 -0.39363,2e-5 -0.73039,0.13997 -1.0103,0.41987 -0.27991,0.27118 -0.41987,0.60357 -0.41986,0.99718 l 0,9.00085 c -1e-5,0.39363 0.13995,0.73039 0.41986,1.0103 0.27991,0.27117 0.61667,0.40675 1.0103,0.40674 0.39362,1e-5 0.72601,-0.13557 0.99718,-0.40674 0.2799,-0.27991 0.41986,-0.61667 0.41986,-1.0103 l 0,-9.00085" style="font-weight:bold;fill:#000000;stroke:none;font-family:Bebas;-inkscape-font-specification:Bebas Bold" id="path3881" inkscape:connector-curvature="0" />
    <path d="m 236.36056,184.03527 -2.63728,0 0,-2.47983 7.74126,0 0,2.47983 -2.62416,0 0,13.9605 -2.47982,0 0,-13.9605" style="font-weight:bold;fill:#000000;stroke:none;font-family:Bebas;-inkscape-font-specification:Bebas Bold" id="path3883" inkscape:connector-curvature="0" />
  </g>
  <path id="foot" style="fill:#000000;stroke:none" inkscape:connector-curvature="0" d="m47.076 204.89c-13.365-2.58-33.305-9.93-40.228-14.81-6.7374-4.7565-8.4318-9.7533-5.3985-15.919 2.4473-4.9749 6.8145-6.7486 15.56-6.3196 17.854 0.87587 19.622 0.71298 23.463-2.1611 1.9881-1.4878 11.061-9.7185 20.162-18.29 9.1012-8.5719 19.383-17.813 22.849-20.536 3.4655-2.7227 7.5966-6.8923 9.1803-9.2659l2.8795-4.3156-4.0937-9.5571c-3.518-8.219-4.093-10.587-4.083-16.82 0.02205-13.412 3.1903-21.818 11.009-29.207 6.8157-6.4416 16.145-10.311 36.211-15.02 26.038-6.1096 34.045-8.6938 41.705-13.461 10.07-6.2663 25.277-17.239 31.264-22.56 8.911-7.9189 14.03-8.7358 16.438-2.6235 1.6036 4.0695 0.69299 8.0344-3.5438 15.43-1.9019 3.3202-3.443 6.3356-3.4246 6.701 0.0184 0.36537 0.9488 1.8203 2.0676 3.2331 2.0304 2.5641 2.04 2.5652 5.2425 0.60785 1.7646-1.0785 5.0646-3.5424 7.3333-5.4753 5.922-5.0454 9.8295-6.2924 12.96-4.136 4.7693 3.285 4.279 9.4339-1.4791 18.55-2.934 4.6451-2.9514 4.7551-1.0846 6.8666 2.3157 2.6192 3.5017 8.7425 2.5633 13.234-0.3827 1.8316-2.0675 4.9725-3.7439 6.9796-2.9737 3.5603-3.0032 3.7015-1.2102 5.7842 2.6801 3.1131 2.3261 8.5266-0.84328 12.895-3.5623 4.9095-11.225 10.7-16.815 12.705-3.7379 1.3412-4.4753 2.0353-4.2515 4.0019 0.65168 5.7268-1.7603 9.4246-10.756 16.49-0.23952 0.18811 0.0997 0.90456 0.7537 1.5921 3.68 3.8684-0.58284 11.339-7.7602 13.599-2.7837 0.87672-3.9963 2.0673-5.251 5.1556-3.1535 7.7622-15.386 12.869-26.209 10.943-3.4762-0.61882-6.3901-1.069-6.4753-1.0003-0.0851 0.0687-0.60582 4.0713-1.157 8.8947-1.3114 11.475-4.1518 16.205-12.077 20.111-5.3992 2.6606-6.5708 2.8168-21.844 2.9123l-16.139 0.10088-6.9746 3.8779c-3.836 2.1328-10.14 6.2513-14.009 9.1521-12.354 9.2627-18.144 11.7-28.857 12.15-5.1317 0.21535-11.402-0.008-13.934-0.49752zm18.04-6.449c7.5516-1.2881 11.398-3.2172 21.407-10.737 4.0887-3.0718 9.1139-6.5251 11.167-7.674 3.4663-1.9396 3.7328-2.4306 3.7276-6.8666-0.008-6.7108-1.5361-11.746-5.3562-17.646-3.487-5.3862-14.519-14.069-17.875-14.069-1.0873 0-8.9402 6.559-17.747 14.823-8.6879 8.1524-17.605 15.739-19.816 16.859-4.675 2.3686-7.419 2.566-21.237 1.5277-10.18-0.77-10.182-0.77-11.878 1.95-1.3196 2.1172-1.453 3.201-0.6 4.8764 2.2552 4.4296 27.703 14.775 41.422 16.84 8.8672 1.3347 9.5812 1.3394 16.785 0.11061zm81.564-27.48c6.2585-3.6083 8.1169-7.8596 7.7732-17.782-0.26203-7.5644-0.38539-7.9089-3.9023-10.896-5.0034-4.2502-15.366-6.914-25.357-6.5181-8.2229 0.32586-12.094 1.9742-19.249 8.1956-2.7943 2.4298-2.9107 2.8009-1.592 5.0722 3.7691 6.4918 6.1646 12.735 6.8682 17.902 0.76499 5.6164 0.81601 5.6845 4.7831 6.381 2.2054 0.3872 8.9999 0.59822 15.099 0.46894 9.6248-0.20402 11.681-0.57667 15.577-2.8224zm37.64-30.936c2.2047-1.2668 4.1598-3.1288 4.3447-4.1379 0.28433-1.552-0.48797-1.8416-5.0135-1.8806-2.9423-0.0252-7.3592-0.4537-9.8154-0.952-4.2361-0.85938-4.6834-0.70763-8.6976 2.9511-2.3275 2.1214-4.0561 4.0475-3.8413 4.2801 0.21481 0.23268 2.5459 1.0506 5.1803 1.8176 5.9267 1.7255 12.569 0.95177 17.843-2.0784zm-82.242-6.0934c3.7348-2.9716 7.8353-5.9033 9.1121-6.5149 2.4636-1.18 2.4376-1.8336-0.35283-8.854-1.1981-3.0142-1.8956-3.5253-4.8114-3.5253-2.9028 0-4.0443 0.82519-7.6716 5.5461-2.3438 3.0503-5.8906 7.1016-7.8819 9.0028-3.0771 2.938-3.3807 3.6054-2.0226 4.4476 0.87883 0.54495 2.6877 1.9447 4.0198 3.1106 1.332 1.1658 2.511 2.1355 2.6199 2.1549 0.10892 0.0193 3.2538-2.3962 6.9886-5.3678zm60.874-4.7338c0.80255-1.8516 0.74579-2.893-0.22466-4.1222-1.0812-1.3695-3.5865-1.5957-14.971-1.3518-13.131 0.28132-13.684 0.38299-13.981 2.568-0.36841 2.7175 2.3045 3.8301 14.378 5.9846 9.1751 1.6374 13.109 0.81895 14.798-3.0788zm-35.4-4.1222c0-3.9772-0.57183-5.3886-3.5095-8.6626-4.2263-4.7101-5.1569-9.0545-3.6401-16.994 1.3486-7.0591 4.978-13.245 9.4509-16.108 6.765-4.3305 20.191-8.4706 36.207-11.165 30.75-5.1729 52.742-15.027 66.443-29.772 5.0097-5.3915 10.357-15.285 8.5955-15.902-0.58454-0.20482-3.4213 1.5252-6.3039 3.8446-2.8826 2.3193-9.3111 6.7898-14.286 9.9343-24.199 15.297-29.156 17.267-53.911 21.423-41.602 6.9839-49.238 11.294-52.992 29.911-0.62082 3.0789-1.1303 7.1196-1.1321 8.9794-0.005 5.0987 7.953 28.008 9.9204 28.559 4.6133 1.2915 5.157 0.86477 5.157-4.0472zm71.886 1.1078c3.5728-1.5692 4.5973-4.1329 2.0606-5.1562-0.78342-0.31602-7.2389-0.67537-14.346-0.79857-13.052-0.22626-17.393 0.77061-17.393 3.9943 0 3.0198 23.702 4.5855 29.678 1.9604zm-31.494-10.276c4.6713-1.4712 6.4068-4.1133 4.7891-7.2908-0.75754-1.488-1.6589-1.9598-2.7989-1.4652-0.92487 0.40122-10.5 0.9478-21.278 1.2146-10.778 0.26681-20.238 0.70425-21.022 0.97207-1.0314 0.35241-0.47605 1.4897 2.0099 4.1158l3.4351 3.6288 15.46 0.0336c9.0406 0.0197 17.098-0.48229 19.404-1.2087zm38.658-5.7306c2.3723-2.0139 3.981-4.3535 4.1765-6.0743 0.383-3.3709 0.47044-3.3644-16.397-1.225-6.6326 0.84125-13.038 1.5444-14.233 1.5625-1.9999 0.0303-2.0882 0.3077-1.1038 3.4662 0.58851 1.8883 1.2287 4.0695 1.4227 4.8472 0.2744 1.1001 2.7856 1.3346 11.314 1.0564 10.529-0.34339 11.114-0.48678 14.82-3.633zm-99.148-2.3894c0-0.50112-1.3195-2.6566-2.9323-4.7899-3.5514-4.6976-4.5045-9.8973-3.1619-17.249 1.7094-9.3606 5.1262-13.485 15.565-18.791 9.4453-4.8002 11.375-5.4242 35.834-11.586 22.29-5.6157 35.554-11.996 49.558-23.838 7.3143-6.1853 12.062-12.55 15.142-20.3 2.1796-5.4836 0.32663-5.2197-6.5264 0.92947-10.463 9.3882-33.702 24.884-42.597 28.403-3.3788 1.3369-13.824 4.1652-23.212 6.2853-34.648 7.8242-43.47 12.131-48.556 23.704-2.142 4.8741-2.6085 7.5136-2.6337 14.903-0.0275 8.0832 0.30399 9.691 3.3217 16.11 3.1581 6.7177 3.5505 7.1307 6.7749 7.1307 1.8824 0 3.4226-0.41001 3.4226-0.91114zm61.871-7.5668c1.6192-0.64716 3.7195-1.9143 4.6673-2.816 1.5602-1.4842 1.5814-1.9275 0.22485-4.6852-1.4143-2.8749-1.6275-2.9569-3.7995-1.4609-2.4575 1.6927-20.521 3.6607-33.871 3.6901-8.1919 0.0181-9.9992 0.94859-9.9992 5.1484v2.5964l19.916-0.64813c10.954-0.35647 21.241-1.1776 22.861-1.8248zm31.46-4.7704c18.038-2.7493 23.267-4.8526 31.031-12.48 3.4722-3.4113 4.1093-6.0255 1.9316-7.9254-1.007-0.87849-3.0415-0.27195-8.2908 2.4716-8.2929 4.3344-21.865 8.2947-34.76 10.143-5.1583 0.73934-9.521 1.4486-9.6948 1.5762-0.17382 0.12757-0.0104 1.9444 0.36308 4.0373 0.64572 3.6182 0.87724 3.8053 4.7093 3.8053 2.2166 0 8.8366-0.73259 14.711-1.628zm-46.601-7.9569c6.6326-0.64629 12.654-1.6906 13.382-2.3206 0.72734-0.63005 1.9991-2.521 2.8261-4.2022l1.5036-3.0566-4.836 0.71807c-13.732 2.039-31.479 7.4525-33.02 10.072-0.31661 0.5385 1.3217 0.73845 3.762 0.45914 2.3776-0.27213 9.7495-1.0236 16.382-1.6698zm-44.291-6.261c0.46705-1.8355 0.38794-2.1577-0.25935-1.0564-0.51225 0.87152-1.2338 2.773-1.6034 4.2256-0.46705 1.8355-0.38794 2.1577 0.25935 1.0564 0.51225-0.87152 1.2338-2.773 1.6034-4.2256zm90.5-2.2034c13.395-2.9709 21.752-6.3734 29.86-12.157 7.4887-5.3425 9.7313-9.4702 7.8984-14.538-0.55562-1.5362-1.4462-2.7932-1.979-2.7932-0.53281 0-4.501 2.666-8.8181 5.9245-4.3172 3.2585-10.337 7.2449-13.377 8.8586-7.2448 3.8459-22.081 9.3341-29.582 10.943-5.1483 1.1044-6.0638 1.6641-6.6794 4.084-0.39238 1.5423-0.53361 2.9932-0.31384 3.2242 0.62028 0.65202 11.92-1.0909 22.991-3.5462zm-2.4942-33.037c14.231-7.6345 17.124-9.564 16.833-11.229-0.53373-3.0557-3.7098-2.1998-9.163 2.4693-3.0347 2.5983-8.376 6.4792-11.87 8.6243-7.4098 4.5494-7.6469 4.7438-5.766 4.7289 0.78302-0.006 5.2676-2.0734 9.9657-4.5937z" />
  <metadata id="metadata3033">
    <rdf:RDF>
      <cc:Work>
        <dc:format>image/svg+xml</dc:format>
        <dc:type rdf:resource="http://purl.org/dc/dcmitype/StillImage" />
        <cc:license rdf:resource="http://creativecommons.org/licenses/publicdomain/" />
        <dc:publisher>
          <cc:Agent rdf:about="http://openclipart.org/">
            <dc:title>Openclipart</dc:title>
          </cc:Agent>
        </dc:publisher>
        <dc:title></dc:title>
        <dc:date>2012-07-04T12:36:25</dc:date>
        <dc:description>A winged foot, popular symbol of track &amp; field</dc:description>
        <dc:source>https://openclipart.org/detail/171035/winged-foot-by-spacefem-171035</dc:source>
        <dc:creator>
          <cc:Agent>
            <dc:title>spacefem</dc:title>
          </cc:Agent>
        </dc:creator>
        <dc:subject>
          <rdf:Bag>
            <rdf:li>Hermes</rdf:li>
            <rdf:li>feet</rdf:li>
            <rdf:li>field</rdf:li>
            <rdf:li>running</rdf:li>
            <rdf:li>track</rdf:li>
            <rdf:li>track and field</rdf:li>
            <rdf:li>wings</rdf:li>
          </rdf:Bag>
        </dc:subject>
      </cc:Work>
      <cc:License rdf:about="http://creativecommons.org/licenses/publicdomain/">
        <cc:permits rdf:resource="http://creativecommons.org/ns#Reproduction" />
        <cc:permits rdf:resource="http://creativecommons.org/ns#Distribution" />
        <cc:permits rdf:resource="http://creativecommons.org/ns#DerivativeWorks" />
      </cc:License>
    </rdf:RDF>
  </metadata>
</svg>
